<mxGraphModel dx="0" dy="0" grid="1" gridSize="10" guides="1" tooltips="1" connect="1" arrows="1" fold="1" page="0" pageScale="1" background="none" math="0" shadow="0">
  <root>
    <mxCell id="0" />
    <mxCell id="1" parent="0" />
    <mxCell id="node4" parent="1" vertex="1" value="&lt;p style=&quot;margin:0px;margin-top:4px;text-align:center;&quot;&gt;&lt;b&gt;Animal&lt;/b&gt;&lt;/p&gt;&lt;hr size=&quot;1&quot;/&gt;&lt;p style=&quot;margin:0 0 0 4px;line-height:1.6;&quot;&gt;+ name: String&lt;br/&gt;+ imageRoute: String&lt;br/&gt;+ energyPercentage: double&lt;br/&gt;+ MAXIMUM_PERCENTAGE: double&lt;br/&gt;+ MINIMUM_PERCENTAGE: double&lt;br/&gt;+ hungerPercentage: double&lt;br/&gt;+ sicknessPercentage: double&lt;br/&gt;+ funnyPercentage: double&lt;br/&gt;+ lifetimePercentage: double&lt;br/&gt;+ imageResolution: int&lt;/p&gt;&lt;hr size=&quot;1&quot;/&gt;&lt;p style=&quot;margin:0 0 0 4px;line-height:1.6;&quot;&gt;+ getImageRoute(): String&lt;br/&gt;+ setName(String): void&lt;br/&gt;+ setEnergyPercentage(double): void&lt;br/&gt;+ play(): void&lt;br/&gt;+ setSicknessPercentage(double): void&lt;br/&gt;+ sleep(): void&lt;br/&gt;+ getLifetimePercentage(): double&lt;br/&gt;+ heal(): void&lt;br/&gt;+ eat(): void&lt;br/&gt;+ getEnergyPercentage(): double&lt;br/&gt;+ setLifetimePercentage(double): void&lt;br/&gt;+ getFunPercentage(): double&lt;br/&gt;+ setImageRoute(String): void&lt;br/&gt;+ getSicknessPercentage(): double&lt;br/&gt;+ getName(): String&lt;br/&gt;+ setFunnyPercentage(double): void&lt;br/&gt;+ getHungerPercentage(): double&lt;br/&gt;+ setHungerPercentage(double): void&lt;/p&gt;" style="verticalAlign=top;align=left;overflow=fill;fontSize=14;fontFamily=Helvetica;html=1;rounded=0;shadow=0;comic=0;labelBackgroundColor=none;strokeWidth=1;">
      <mxGeometry x="30" y="-15" width="238" height="650" as="geometry" />
    </mxCell>
    <mxCell id="node2" parent="1" vertex="1" value="&lt;p style=&quot;margin:0px;margin-top:4px;text-align:center;&quot;&gt;&lt;b&gt;Display&lt;/b&gt;&lt;/p&gt;&lt;hr size=&quot;1&quot;/&gt;&lt;p style=&quot;margin:0 0 0 4px;line-height:1.6;&quot;&gt;+ sicknessPercentageLabel: JLabel&lt;br/&gt;+ playButtonPressed: boolean&lt;br/&gt;+ feedButton: JButton&lt;br/&gt;+ petMessage: String&lt;br/&gt;+ panelTitle: String&lt;br/&gt;+ hungerPercentageLabel: JLabel&lt;br/&gt;+ imgHandler: ImageHandler&lt;br/&gt;+ imageRoute: String&lt;br/&gt;+ feedButtonPressed: boolean&lt;br/&gt;+ sleepButton: JButton&lt;br/&gt;+ editorPane3: JEditorPane&lt;br/&gt;+ playButton: JButton&lt;br/&gt;+ sleepButtonPressed: boolean&lt;br/&gt;+ healButton: JButton&lt;br/&gt;+ editorPane: JEditorPane&lt;br/&gt;+ editorPane2: JEditorPane&lt;br/&gt;+ healButtonPressed: boolean&lt;br/&gt;+ height: int&lt;br/&gt;+ buttonWidth: int&lt;br/&gt;+ FunnyPercentageLabel: JLabel&lt;br/&gt;+ energyPercentageLabel: JLabel&lt;br/&gt;+ lifetimePercentageLabel: JLabel&lt;br/&gt;+ width: int&lt;br/&gt;+ buttonHeight: int&lt;br/&gt;+ jpanel: JPanel&lt;br/&gt;+ base: Animal&lt;/p&gt;&lt;hr size=&quot;1&quot;/&gt;&lt;p style=&quot;margin:0 0 0 4px;line-height:1.6;&quot;&gt;+ initializeScreen(): void&lt;br/&gt;+ paint(Graphics): void&lt;br/&gt;+ setPetMessage(String): void&lt;br/&gt;+ getPetMessage(): String&lt;br/&gt;+ actionPerformed(ActionEvent): void&lt;br/&gt;+ initializeButtons(): void&lt;br/&gt;+ initializePanel(): void&lt;br/&gt;+ initializeEditorPane3(): void&lt;br/&gt;+ initializeEditorPane2(): void&lt;br/&gt;+ initializeEditorPane1(): void&lt;/p&gt;" style="verticalAlign=top;align=left;overflow=fill;fontSize=14;fontFamily=Helvetica;html=1;rounded=0;shadow=0;comic=0;labelBackgroundColor=none;strokeWidth=1;">
      <mxGeometry x="-380" y="-12" width="236" height="826" as="geometry" />
    </mxCell>
    <mxCell id="node6" parent="1" vertex="1" value="&lt;p style=&quot;margin:0px;margin-top:4px;text-align:center;&quot;&gt;&lt;b&gt;Dog&lt;/b&gt;&lt;/p&gt;&lt;hr size=&quot;1&quot;/&gt;&lt;p style=&quot;margin:0 0 0 4px;line-height:1.6;&quot;&gt;+ heal(): void&lt;br/&gt;+ play(): void&lt;br/&gt;+ sleep(): void&lt;br/&gt;+ eat(): void&lt;/p&gt;" style="verticalAlign=top;align=left;overflow=fill;fontSize=14;fontFamily=Helvetica;html=1;rounded=0;shadow=0;comic=0;labelBackgroundColor=none;strokeWidth=1;">
      <mxGeometry x="127" y="695" width="110" height="130" as="geometry" />
    </mxCell>
    <mxCell id="node5" parent="1" vertex="1" value="&lt;p style=&quot;margin:0px;margin-top:4px;text-align:center;&quot;&gt;&lt;b&gt;Hamster&lt;/b&gt;&lt;/p&gt;&lt;hr size=&quot;1&quot;/&gt;&lt;p style=&quot;margin:0 0 0 4px;line-height:1.6;&quot;&gt;+ heal(): void&lt;br/&gt;+ eat(): void&lt;br/&gt;+ sleep(): void&lt;br/&gt;+ play(): void&lt;/p&gt;" style="verticalAlign=top;align=left;overflow=fill;fontSize=14;fontFamily=Helvetica;html=1;rounded=0;shadow=0;comic=0;labelBackgroundColor=none;strokeWidth=1;">
      <mxGeometry x="338" y="691" width="110" height="130" as="geometry" />
    </mxCell>
    <mxCell id="node0" parent="1" vertex="1" value="&lt;p style=&quot;margin:0px;margin-top:4px;text-align:center;&quot;&gt;&lt;b&gt;ImageHandler&lt;/b&gt;&lt;/p&gt;&lt;hr size=&quot;1&quot;/&gt;&lt;p style=&quot;margin:0 0 0 4px;line-height:1.6;&quot;&gt;+ SLEEPY: int&lt;br/&gt;+ BORED: int&lt;br/&gt;+ message: String&lt;br/&gt;+ SICK: int&lt;br/&gt;+ pet: String&lt;br/&gt;+ NORMAL: int&lt;br/&gt;+ imageRoute: String&lt;/p&gt;&lt;hr size=&quot;1&quot;/&gt;&lt;p style=&quot;margin:0 0 0 4px;line-height:1.6;&quot;&gt;+ setImage(Animal): String&lt;br/&gt;+ analyzeData(double, double, double, double, double): int&lt;br/&gt;+ getMessage(): String&lt;/p&gt;" style="verticalAlign=top;align=left;overflow=fill;fontSize=14;fontFamily=Helvetica;html=1;rounded=0;shadow=0;comic=0;labelBackgroundColor=none;strokeWidth=1;">
      <mxGeometry x="338" y="370" width="346" height="254" as="geometry" />
    </mxCell>
    <mxCell id="node1" parent="1" vertex="1" value="&lt;p style=&quot;margin:0px;margin-top:4px;text-align:center;&quot;&gt;&lt;b&gt;Main&lt;/b&gt;&lt;/p&gt;&lt;hr size=&quot;1&quot;/&gt;&lt;p style=&quot;margin:0 0 0 4px;line-height:1.6;&quot;&gt;+ main(String[]): void&lt;/p&gt;" style="verticalAlign=top;align=left;overflow=fill;fontSize=14;fontFamily=Helvetica;html=1;rounded=0;shadow=0;comic=0;labelBackgroundColor=none;strokeWidth=1;">
      <mxGeometry x="505" y="684" width="149" height="58" as="geometry" />
    </mxCell>
    <mxCell id="node3" parent="1" vertex="1" value="&lt;p style=&quot;margin:0px;margin-top:4px;text-align:center;&quot;&gt;&lt;b&gt;Rabbit&lt;/b&gt;&lt;/p&gt;&lt;hr size=&quot;1&quot;/&gt;&lt;p style=&quot;margin:0 0 0 4px;line-height:1.6;&quot;&gt;+ play(): void&lt;br/&gt;+ eat(): void&lt;br/&gt;+ sleep(): void&lt;br/&gt;+ heal(): void&lt;/p&gt;" style="verticalAlign=top;align=left;overflow=fill;fontSize=14;fontFamily=Helvetica;html=1;rounded=0;shadow=0;comic=0;labelBackgroundColor=none;strokeWidth=1;">
      <mxGeometry x="-62" y="747" width="110" height="130" as="geometry" />
    </mxCell>
    <mxCell id="edge0" edge="1" value="" parent="1" source="node6" target="node4" style="html=1;rounded=1;edgeStyle=orthogonalEdgeStyle;dashed=0;startArrow=none;endArrow=block;endSize=12;strokeColor=#000082;exitX=0.500;exitY=0.000;exitDx=0;exitDy=0;entryX=0.500;entryY=1.000;entryDx=0;entryDy=0;">
      <mxGeometry width="50" height="50" relative="1" as="geometry">
        <Array as="points">
          <mxPoint x="182" y="664" />
          <mxPoint x="149" y="664" />
        </Array>
      </mxGeometry>
    </mxCell>
    <mxCell id="edge2" edge="1" value="" parent="1" source="node5" target="node4" style="html=1;rounded=1;edgeStyle=orthogonalEdgeStyle;dashed=0;startArrow=none;endArrow=block;endSize=12;strokeColor=#000082;exitX=0.500;exitY=0.000;exitDx=0;exitDy=0;entryX=0.500;entryY=1.000;entryDx=0;entryDy=0;">
      <mxGeometry width="50" height="50" relative="1" as="geometry">
        <Array as="points">
          <mxPoint x="393" y="664" />
          <mxPoint x="149" y="664" />
        </Array>
      </mxGeometry>
    </mxCell>
    <mxCell id="edge1" edge="1" value="" parent="1" source="node3" target="node4" style="html=1;rounded=1;edgeStyle=orthogonalEdgeStyle;dashed=0;startArrow=none;endArrow=block;endSize=12;strokeColor=#000082;exitX=0.500;exitY=0.000;exitDx=0;exitDy=0;entryX=0.500;entryY=1.000;entryDx=0;entryDy=0;">
      <mxGeometry width="50" height="50" relative="1" as="geometry">
        <Array as="points">
          <mxPoint x="-7" y="664" />
          <mxPoint x="149" y="664" />
        </Array>
      </mxGeometry>
    </mxCell>
  </root>
</mxGraphModel>